<mxfile host="app.diagrams.net" agent="Mozilla/5.0 (Macintosh; Intel Mac OS X 10.15; rv:137.0) Gecko/20100101 Firefox/137.0" version="26.2.14">
  <diagram name="Page-1" id="8_roeZhbLaqf0GE61seu">
    <mxGraphModel dx="393" dy="290" grid="1" gridSize="10" guides="1" tooltips="1" connect="1" arrows="1" fold="1" page="1" pageScale="1" pageWidth="850" pageHeight="1100" math="0" shadow="0">
      <root>
        <mxCell id="0" />
        <mxCell id="1" parent="0" />
        <mxCell id="azB6Lorwae7BngASVjDZ-28" value="" style="group" vertex="1" connectable="0" parent="1">
          <mxGeometry x="315" y="420" width="220" height="90" as="geometry" />
        </mxCell>
        <mxCell id="azB6Lorwae7BngASVjDZ-26" value="" style="whiteSpace=wrap;html=1;glass=0;fillColor=light-dark(#60A917,#FFFFFF);fontColor=#ffffff;strokeColor=none;opacity=40;" vertex="1" parent="azB6Lorwae7BngASVjDZ-28">
          <mxGeometry x="40" y="5" width="35" height="45" as="geometry" />
        </mxCell>
        <mxCell id="azB6Lorwae7BngASVjDZ-1" value="" style="endArrow=classic;html=1;rounded=0;" edge="1" parent="azB6Lorwae7BngASVjDZ-28">
          <mxGeometry width="50" height="50" relative="1" as="geometry">
            <mxPoint y="50" as="sourcePoint" />
            <mxPoint x="220" y="50" as="targetPoint" />
          </mxGeometry>
        </mxCell>
        <mxCell id="azB6Lorwae7BngASVjDZ-8" value="" style="endArrow=none;html=1;rounded=0;" edge="1" parent="azB6Lorwae7BngASVjDZ-28">
          <mxGeometry width="50" height="50" relative="1" as="geometry">
            <mxPoint x="75" y="60" as="sourcePoint" />
            <mxPoint x="75" y="40" as="targetPoint" />
          </mxGeometry>
        </mxCell>
        <mxCell id="azB6Lorwae7BngASVjDZ-9" value="" style="endArrow=none;html=1;rounded=0;" edge="1" parent="azB6Lorwae7BngASVjDZ-28">
          <mxGeometry width="50" height="50" relative="1" as="geometry">
            <mxPoint x="40" y="60" as="sourcePoint" />
            <mxPoint x="40" y="40" as="targetPoint" />
          </mxGeometry>
        </mxCell>
        <mxCell id="azB6Lorwae7BngASVjDZ-10" value="" style="endArrow=none;html=1;rounded=0;" edge="1" parent="azB6Lorwae7BngASVjDZ-28">
          <mxGeometry width="50" height="50" relative="1" as="geometry">
            <mxPoint x="180" y="60" as="sourcePoint" />
            <mxPoint x="180" y="40" as="targetPoint" />
          </mxGeometry>
        </mxCell>
        <mxCell id="azB6Lorwae7BngASVjDZ-11" value="" style="endArrow=none;html=1;rounded=0;" edge="1" parent="azB6Lorwae7BngASVjDZ-28">
          <mxGeometry width="50" height="50" relative="1" as="geometry">
            <mxPoint x="145" y="60" as="sourcePoint" />
            <mxPoint x="145" y="40" as="targetPoint" />
          </mxGeometry>
        </mxCell>
        <mxCell id="azB6Lorwae7BngASVjDZ-12" value="1" style="text;html=1;align=center;verticalAlign=middle;whiteSpace=wrap;rounded=0;" vertex="1" parent="azB6Lorwae7BngASVjDZ-28">
          <mxGeometry x="115" y="60" width="60" height="30" as="geometry" />
        </mxCell>
        <mxCell id="azB6Lorwae7BngASVjDZ-13" value="2" style="text;html=1;align=center;verticalAlign=middle;whiteSpace=wrap;rounded=0;" vertex="1" parent="azB6Lorwae7BngASVjDZ-28">
          <mxGeometry x="150" y="60" width="60" height="30" as="geometry" />
        </mxCell>
        <mxCell id="azB6Lorwae7BngASVjDZ-14" value="-1" style="text;html=1;align=center;verticalAlign=middle;whiteSpace=wrap;rounded=0;" vertex="1" parent="azB6Lorwae7BngASVjDZ-28">
          <mxGeometry x="45" y="60" width="60" height="30" as="geometry" />
        </mxCell>
        <mxCell id="azB6Lorwae7BngASVjDZ-15" value="-2" style="text;html=1;align=center;verticalAlign=middle;whiteSpace=wrap;rounded=0;" vertex="1" parent="azB6Lorwae7BngASVjDZ-28">
          <mxGeometry x="10" y="60" width="60" height="30" as="geometry" />
        </mxCell>
        <mxCell id="azB6Lorwae7BngASVjDZ-18" value="" style="group" vertex="1" connectable="0" parent="azB6Lorwae7BngASVjDZ-28">
          <mxGeometry x="5" y="21" width="75" height="10" as="geometry" />
        </mxCell>
        <mxCell id="azB6Lorwae7BngASVjDZ-16" value="" style="ellipse;whiteSpace=wrap;html=1;aspect=fixed;fillColor=light-dark(#000000,#FFFFFF);fillStyle=solid;" vertex="1" parent="azB6Lorwae7BngASVjDZ-18">
          <mxGeometry x="65" width="10" height="10" as="geometry" />
        </mxCell>
        <mxCell id="azB6Lorwae7BngASVjDZ-17" value="" style="endArrow=classic;html=1;rounded=0;exitX=0;exitY=0.5;exitDx=0;exitDy=0;" edge="1" parent="azB6Lorwae7BngASVjDZ-18" source="azB6Lorwae7BngASVjDZ-16">
          <mxGeometry width="50" height="50" relative="1" as="geometry">
            <mxPoint x="75" y="-10" as="sourcePoint" />
            <mxPoint y="5" as="targetPoint" />
          </mxGeometry>
        </mxCell>
        <mxCell id="azB6Lorwae7BngASVjDZ-19" value="" style="group;rotation=-180;" vertex="1" connectable="0" parent="azB6Lorwae7BngASVjDZ-28">
          <mxGeometry x="140" y="21" width="75" height="10" as="geometry" />
        </mxCell>
        <mxCell id="azB6Lorwae7BngASVjDZ-20" value="" style="ellipse;whiteSpace=wrap;html=1;aspect=fixed;fillColor=light-dark(#000000,#FFFFFF);fillStyle=solid;rotation=-180;" vertex="1" parent="azB6Lorwae7BngASVjDZ-19">
          <mxGeometry width="10" height="10" as="geometry" />
        </mxCell>
        <mxCell id="azB6Lorwae7BngASVjDZ-21" value="" style="endArrow=classic;html=1;rounded=0;exitX=0;exitY=0.5;exitDx=0;exitDy=0;" edge="1" parent="azB6Lorwae7BngASVjDZ-19" source="azB6Lorwae7BngASVjDZ-20">
          <mxGeometry width="50" height="50" relative="1" as="geometry">
            <mxPoint y="20" as="sourcePoint" />
            <mxPoint x="75" y="5" as="targetPoint" />
          </mxGeometry>
        </mxCell>
        <mxCell id="azB6Lorwae7BngASVjDZ-23" value="" style="ellipse;whiteSpace=wrap;html=1;aspect=fixed;fillColor=light-dark(#000000,#FFFFFF);fillStyle=solid;" vertex="1" parent="azB6Lorwae7BngASVjDZ-28">
          <mxGeometry x="35" width="10" height="10" as="geometry" />
        </mxCell>
        <mxCell id="azB6Lorwae7BngASVjDZ-24" value="" style="ellipse;whiteSpace=wrap;html=1;aspect=fixed;fillColor=light-dark(#000000,#FFFFFF);fillStyle=solid;" vertex="1" parent="azB6Lorwae7BngASVjDZ-28">
          <mxGeometry x="174.5" width="10" height="10" as="geometry" />
        </mxCell>
        <mxCell id="azB6Lorwae7BngASVjDZ-25" value="" style="endArrow=none;html=1;rounded=0;exitX=1;exitY=0.5;exitDx=0;exitDy=0;entryX=0;entryY=0.5;entryDx=0;entryDy=0;" edge="1" parent="azB6Lorwae7BngASVjDZ-28" source="azB6Lorwae7BngASVjDZ-23" target="azB6Lorwae7BngASVjDZ-24">
          <mxGeometry width="50" height="50" relative="1" as="geometry">
            <mxPoint x="45" y="10" as="sourcePoint" />
            <mxPoint x="95" y="-40" as="targetPoint" />
          </mxGeometry>
        </mxCell>
        <mxCell id="azB6Lorwae7BngASVjDZ-27" value="" style="whiteSpace=wrap;html=1;glass=0;fillColor=light-dark(#60A917,#FFFFFF);fontColor=#ffffff;strokeColor=none;opacity=40;" vertex="1" parent="azB6Lorwae7BngASVjDZ-28">
          <mxGeometry x="145" y="5" width="35" height="45" as="geometry" />
        </mxCell>
      </root>
    </mxGraphModel>
  </diagram>
</mxfile>
